<?xml version="1.0" ?><svg id="icons" viewBox="0 0 153.7 153.27" xmlns="http://www.w3.org/2000/svg"><defs><style>.cls-1{fill:#ee3d8c;}.cls-2{fill:#fff399;}.cls-3{fill:#feec66;}.cls-4{fill:#fff;}</style></defs><title/><path class="cls-1" d="M112.35,147.87c7.33-1.44,17.63-8.6,18.48-9.12,19.69-12,19.39-43,18.34-62.73-1.09-20.56.68-44.78-14.77-60.17-13.32-13.27-32.86-7.33-51-8.41C62.83,6.21,40,3.17,23,16.27,8.48,27.53,4.33,47.05,4,64.45,3.74,74.79,6.61,85,6.46,95.36,5.68,146.89,52,149.61,73.05,151,86.11,151.88,99.53,150.37,112.35,147.87Z"/><path class="cls-2" d="M131.92,116.89S30.57,129.26,21,115.27c20.24-25,42.87-36.15,42.87-36.15l.24-.28L75.6,89.06l11.68-9.87Z"/><path class="cls-3" d="M132.84,40.71s3.73,27.94,3.6,37.15c-.14,10.33-3.5,39.11-3.5,39.11L87.28,79.19Z"/><path class="cls-3" d="M20.82,114.57S7.38,73.47,19.68,39.18C38.78,52.65,65.28,77,65.28,77l-.23.28Z"/><path class="cls-4" d="M19.68,39.18S42.92,66.14,54,76.06c2.87,2.55,21.57,13,21.57,13S95.8,67.74,109.41,60.5c6.77-3.6,23.43-19.79,23.43-19.79s-41.91-5.69-56-5.89c-8.39-.12-26.38-.66-40,.61A73.65,73.65,0,0,0,19.68,39.18Z"/><path d="M86.27,152.54c-10.69.05-21.38,0-32.07-.1-8.47-.07-16.94-.43-25.41-.43-7.68,0-15.13-1.46-20.94-6.93C2.64,140.17,0,133.08-.09,126c-.15-8.36.48-16.69.65-25S-.26,84.23.17,75.81C.62,67,.76,58.24.53,49.45.21,37.1-2.41,22.94,5.91,12.5A30.46,30.46,0,0,1,25.67,1.37C28.74,1,31.83.79,34.92.62c22.4-1.2,45-.58,67.43-.23,7.89.12,15.8-.14,23.68.12A28.26,28.26,0,0,1,139.19,4a29,29,0,0,1,13.68,17.9c1.66,7,.72,15.11.23,22.21-.27,4,.24,7.74.4,11.69.13,3.23,0,6.45-.07,9.68-.09,8.63,0,17.27-.2,25.9-.19,8.8-.13,17.48.14,26.28.19,5.91.72,12.1-1.37,17.76-2.34,6.34-7.31,10.62-13,14-6.26,3.71-13,4-20,3.9C108.07,153.28,97.18,152.49,86.27,152.54Zm0-4.89c5.77,0,11.52.09,17.29.29,8,.28,16.36,1.15,24.38.32,7.47-.78,14.23-6.23,17.61-12.77,3.69-7.16,2.49-16.61,2.53-24.42.09-16.67-.07-33.39.27-50.07.18-8.79.58-17.59.22-26.38-.3-7.18-.66-13.93-5.19-19.91-5-6.54-11.92-9.15-19.88-9.35-8.77-.23-17.54-.3-26.31-.56-13.63-.4-27.31-.73-40.95-.62A216,216,0,0,0,29.28,5.62,28.88,28.88,0,0,0,12.81,13c-4.3,4-7.35,9.36-7.44,15.34-.08,5.53,0,11.07.11,16.61.13,8.72-.68,17.28-1.14,26-.39,7.21,0,14.43.34,21.64.39,8.81.83,17.5.46,26.32-.29,6.79-.21,13.76,3.91,19.54a22.46,22.46,0,0,0,17.51,9c8.27.27,16.56.21,24.84.16,11.56-.07,23.12,0,34.68,0Z"/><path d="M134.52,114.41c0-18.76.76-37.38.15-56.16a74.13,74.13,0,0,0-.6-9.66c-.39-2.67.9-8.12-.32-10.53-1.6-3.18-14.29-1.65-17.41-1.7-4,0-8,0-12,.12-9.59.16-18.8.75-28.42.19q-9.75-.57-19.51-1.11c-4.8-.25-37.73-2.33-37.43,3.64-.51,2.39.25,6,.28,8.55.05,4.12,0,8.23,0,12.35-.08,5.16-.53,10.35-.19,15.51.29,4.35,1.27,8.58,1.37,13,.09,3.81.14,7.62.08,11.43q-.07,5-.18,9.89c0,1.44-.9,5,.09,6.25,1.52,2.28,11.19,1.36,13.65,1.49,9.72.55,19.49.11,29.22.17,10.44.07,20.8-.93,31.18-1,6.19,0,12.36.34,18.55.26,4.76-.06,9.51.09,14.26.34C129.63,117.53,135.7,118.76,134.52,114.41Zm-4.73-8.82a24,24,0,0,1,.17,4.15c-6-5.3-12.21-10.36-18.58-15.25-6.89-5.34-13-12-19.63-17.75,13-9.86,25.1-21.22,37.44-31.95.24,10.14.79,20.25.82,30.4S128.64,95.64,129.79,105.59ZM28.69,41.26c32-1.8,64.15.24,96.09.49-15.33,13.14-31,26-46,39.43-2,1.8-1.69,2-3.67.33l-7.13-6-9.61-8.09c-4.48-3.77-8.77-7.76-13.12-11.67-5.66-5.09-11.78-9.26-17.37-14.44Zm-4.15,68.37c.15-9.73.58-19.59-.49-29.27-1.26-11.43.63-23.54.43-35.1C36.63,56,49.16,66.46,61.64,76.83A153.09,153.09,0,0,0,46.38,91.05C39.84,97.9,31.57,103.24,24.54,109.63ZM125,112.9a177.45,177.45,0,0,1-25.78-.49c-8.48-.84-17.09.08-25.59.09-15.21,0-30.4.11-45.6.55,5-4,10.13-8,15.08-12.17,4.44-3.72,8.21-8.21,12.81-11.71C57.4,88.05,65.08,79.69,66,80.5l8.26,6.87c3.63,3,6.26-1.09,9.2-3.68,2.37-2.09,3.14-4.21,5.69-1.87,2.34,2.15,4.69,4.28,7.08,6.39,4.81,4.24,9.46,8.53,14.5,12.51q4.32,3.41,8.48,7C120.65,108.9,124.83,111.8,125,112.9Z"/></svg>